<svg width="32" height="32" viewBox="0 0 32 32" fill="none" xmlns="http://www.w3.org/2000/svg">
<circle cx="16" cy="16" r="15.875" fill="#F5F5F5" stroke="#DF0D4C" stroke-width="0.25"/>
<path d="M15 23.18C13.84 23.18 13.1 22.42 12.78 20.9L12.32 18.68C12.1733 17.96 12.0067 17.4133 11.82 17.04C11.6467 16.6667 11.4 16.4133 11.08 16.28C10.7733 16.1467 10.3467 16.08 9.8 16.08C9.61333 16.08 9.46667 16.1333 9.36 16.24C9.25333 16.3333 9.2 16.4533 9.2 16.6V21.6C9.2 21.88 9.25333 22.0733 9.36 22.18C9.46667 22.2733 9.70667 22.3533 10.08 22.42L10.82 22.54C10.9667 22.5667 11.04 22.64 11.04 22.76C11.04 22.92 10.94 23 10.74 23H6.68C6.48 23 6.38 22.9267 6.38 22.78C6.38 22.66 6.46667 22.58 6.64 22.54L7.1 22.46C7.38 22.4067 7.56 22.3333 7.64 22.24C7.73333 22.1467 7.78 21.96 7.78 21.68V9.92C7.78 9.64 7.73333 9.45333 7.64 9.36C7.56 9.26667 7.38 9.19333 7.1 9.14L6.64 9.06C6.46667 9.02 6.38 8.94 6.38 8.82C6.38 8.67333 6.48 8.6 6.68 8.6H10.74C11.5267 8.6 12.2267 8.75333 12.84 9.06C13.4533 9.36667 13.9333 9.79333 14.28 10.34C14.6267 10.8733 14.8 11.4933 14.8 12.2C14.8 13.04 14.5467 13.8 14.04 14.48C13.5333 15.1467 12.8933 15.62 12.12 15.9C12.0267 15.9267 11.9733 15.9733 11.96 16.04C11.96 16.0933 12.0067 16.14 12.1 16.18C12.5267 16.38 12.86 16.66 13.1 17.02C13.3533 17.38 13.5467 17.86 13.68 18.46L14.12 20.5C14.2667 21.1933 14.44 21.6867 14.64 21.98C14.84 22.2733 15.0933 22.42 15.4 22.42C15.5067 22.42 15.6 22.4067 15.68 22.38C15.7733 22.34 15.8867 22.2733 16.02 22.18C16.1267 22.1133 16.2267 22.1 16.32 22.14C16.4133 22.1667 16.46 22.2333 16.46 22.34C16.46 22.5667 16.3133 22.7667 16.02 22.94C15.7267 23.1 15.3867 23.18 15 23.18ZM10.54 15.58C11.4467 15.58 12.1333 15.28 12.6 14.68C13.0667 14.0667 13.3 13.2533 13.3 12.24C13.3 11.2533 13.0267 10.4867 12.48 9.94C11.9467 9.38 11.2067 9.1 10.26 9.1C9.55333 9.1 9.2 9.36667 9.2 9.9V14.48C9.2 15.2133 9.64667 15.58 10.54 15.58Z" fill="#1A1A1A"/>
<path d="M21.5 23.18C20.78 23.18 20.14 23.0133 19.58 22.68C19.0333 22.3333 18.6067 21.86 18.3 21.26C17.9933 20.6467 17.84 19.9467 17.84 19.16V9.92C17.84 9.64 17.7933 9.45333 17.7 9.36C17.62 9.26667 17.44 9.19333 17.16 9.14L16.7 9.06C16.5267 9.02 16.44 8.94 16.44 8.82C16.44 8.67333 16.54 8.6 16.74 8.6H20.4C20.6 8.6 20.7 8.68 20.7 8.84C20.7 8.96 20.6267 9.03333 20.48 9.06L19.94 9.14C19.6733 9.18 19.4933 9.25333 19.4 9.36C19.3067 9.46667 19.26 9.66 19.26 9.94V19.18C19.26 20.1933 19.4867 20.98 19.94 21.54C20.3933 22.1 21.0267 22.38 21.84 22.38C22.6667 22.38 23.3067 22.1 23.76 21.54C24.2133 20.98 24.44 20.1933 24.44 19.18V10.34C24.44 9.62 24.2133 9.22 23.76 9.14L23.22 9.06C23.0733 9.03333 23 8.96 23 8.84C23 8.68 23.1 8.6 23.3 8.6H26.18C26.38 8.6 26.48 8.67333 26.48 8.82C26.48 8.94 26.3933 9.02 26.22 9.06L25.76 9.14C25.3067 9.22 25.08 9.61333 25.08 10.32V19.16C25.08 20.3733 24.7533 21.3467 24.1 22.08C23.4467 22.8133 22.58 23.18 21.5 23.18Z" fill="#DF0D4C"/>
</svg>
